<svg width="54" height="20" viewBox="0 0 54 20" fill="none" xmlns="http://www.w3.org/2000/svg">
<path d="M17.5475 5.98396C17.5552 6.15996 17.5552 6.32796 17.5552 6.50396C17.563 11.84 13.6426 18 6.47319 18C4.35865 18 2.2827 17.368 0.5 16.184C0.808692 16.224 1.11738 16.24 1.42608 16.24C3.1779 16.24 4.88343 15.632 6.26483 14.504C4.59789 14.472 3.1316 13.344 2.62226 11.696C3.20877 11.816 3.81072 11.792 4.3818 11.624C2.56824 11.256 1.26401 9.59997 1.2563 7.67197C1.2563 7.65597 1.2563 7.63997 1.2563 7.62397C1.79651 7.93597 2.40617 8.11197 3.02356 8.12797C1.31803 6.94396 0.78554 4.58396 1.81966 2.73595C3.80301 5.26396 6.72015 6.79196 9.85337 6.95996C9.53696 5.55996 9.96913 4.08796 10.9801 3.09595C12.5467 1.56795 15.0162 1.64795 16.498 3.27195C17.37 3.09595 18.2112 2.75995 18.9752 2.28795C18.682 3.22395 18.0723 4.01596 17.262 4.51996C18.0337 4.42396 18.79 4.20796 19.5 3.88795C18.9752 4.70396 18.3115 5.40796 17.5475 5.98396Z" fill="white"/>
<path d="M51.387 1.3335H36.6128C36.2734 1.3335 35.948 1.4683 35.708 1.70826C35.4681 1.94822 35.3333 2.27368 35.3333 2.61303V17.3873C35.3333 17.7266 35.4681 18.0521 35.708 18.2921C35.948 18.532 36.2734 18.6668 36.6128 18.6668H51.387C51.7264 18.6668 52.0519 18.532 52.2918 18.2921C52.5318 18.0521 52.6666 17.7266 52.6666 17.3873V2.61303C52.6666 2.27368 52.5318 1.94822 52.2918 1.70826C52.0519 1.4683 51.7264 1.3335 51.387 1.3335ZM40.4995 16.0993H37.8935V7.82146H40.4995V16.0993ZM39.1947 6.67433C38.8991 6.67266 38.6106 6.58347 38.3657 6.418C38.1207 6.25254 37.9302 6.01821 37.8183 5.7446C37.7064 5.471 37.6781 5.17037 37.7368 4.88066C37.7956 4.59095 37.9389 4.32514 38.1486 4.11678C38.3583 3.90843 38.625 3.76686 38.9151 3.70994C39.2052 3.65302 39.5056 3.68331 39.7785 3.79699C40.0514 3.91066 40.2845 4.10262 40.4484 4.34864C40.6123 4.59466 40.6996 4.88372 40.6994 5.17933C40.7022 5.37724 40.6651 5.57369 40.5903 5.75697C40.5156 5.94024 40.4047 6.10659 40.2643 6.2461C40.1239 6.38561 39.9568 6.49542 39.7731 6.56899C39.5893 6.64257 39.3926 6.67839 39.1947 6.67433ZM50.1051 16.1066H47.5003V11.5842C47.5003 10.2505 46.9333 9.83887 46.2015 9.83887C45.4287 9.83887 44.6704 10.4215 44.6704 11.6179V16.1066H42.0644V7.82748H44.5705V8.97461H44.6042C44.8558 8.46544 45.7369 7.59516 47.0814 7.59516C48.5355 7.59516 50.1063 8.45822 50.1063 10.986L50.1051 16.1066Z" fill="white"/>
</svg>
